<svg xmlns="http://www.w3.org/2000/svg" aria-hidden="true" style="position:absolute;width:0;height:0;overflow:hidden">
  <defs>
    <symbol id="icon-twitter" viewBox="0 0 37 32">
      <path d="M36.571 4.66c-1.36.597-2.809.992-4.32 1.184A7.452 7.452 0 0 0 35.549 1.7a14.992 14.992 0 0 1-4.754 1.815 7.514 7.514 0 0 0-5.477-2.373c-4.151 0-7.493 3.369-7.493 7.499 0 .594.05 1.166.174 1.71C11.766 10.047 6.25 7.06 2.545 2.509a7.547 7.547 0 0 0-1.026 3.79 7.509 7.509 0 0 0 3.33 6.231 7.412 7.412 0 0 1-3.387-.923v.082c0 3.643 2.599 6.67 6.007 7.367a7.474 7.474 0 0 1-1.966.247c-.48 0-.965-.027-1.419-.128.971 2.969 3.728 5.152 7.006 5.223a15.069 15.069 0 0 1-9.296 3.198c-.615 0-1.205-.027-1.794-.103 3.321 2.142 7.257 3.365 11.502 3.365 13.797 0 21.339-11.429 21.339-21.335 0-.331-.011-.651-.027-.969 1.488-1.056 2.738-2.375 3.758-3.893z" style=""/>
    </symbol>
    <symbol id="icon-union" viewBox="0 0 28 32">
      <path d="m4.085 0 4.771 4.546L0 4.541v22.054h23.149v-8.432l4.766 4.541V.001H4.085zm18.854 17.629L9.411 4.74h13.528v12.889zm-4.2 5.74H3.663V8.536h1.066v13.828h14.01v1.004zM6.67 30.68l-.562-1.155h-.464l.814 1.529v.891h.421v-.891l.814-1.529h-.462l-.562 1.155zm2.071-1.155h.1l.914 2.42h-.439l-.196-.567h-.937l-.195.567h-.437l.911-2.42h.279zm-.444 1.522h.709l-.355-1.027-.354 1.027zm2.925-.401-.053-.068a1.266 1.266 0 0 1-.145-.238.647.647 0 0 1 .026-.565.519.519 0 0 1 .221-.209.71.71 0 0 1 .334-.075c.123 0 .229.025.317.075.09.049.158.114.206.194.049.081.073.17.073.266 0 .076-.014.146-.042.209s-.066.121-.115.173a1.188 1.188 0 0 1-.17.148l-.168.122.479.566a.966.966 0 0 0 .105-.452h.346c0 .117-.012.229-.035.334a1.039 1.039 0 0 1-.177.4l.355.418h-.464l-.141-.165a.952.952 0 0 1-.248.136 1.107 1.107 0 0 1-.376.063c-.161 0-.3-.029-.417-.088s-.208-.14-.273-.243a.665.665 0 0 1-.095-.354c0-.099.021-.185.061-.259a.797.797 0 0 1 .168-.209c.066-.059.14-.119.224-.178zm.198.243-.05.036a.61.61 0 0 0-.131.138.394.394 0 0 0-.023.409.344.344 0 0 0 .135.138c.06.033.132.05.218.05a.62.62 0 0 0 .391-.137l-.539-.633zm.096-.442.148-.1a.552.552 0 0 0 .15-.136.3.3 0 0 0 .045-.17.241.241 0 0 0-.255-.233.246.246 0 0 0-.231.143.338.338 0 0 0-.028.141c0 .05.013.101.038.155a.994.994 0 0 0 .133.2zm4.234.71h-.416a.776.776 0 0 1-.076.268.383.383 0 0 1-.168.165.626.626 0 0 1-.288.056c-.098 0-.181-.019-.251-.058s-.127-.094-.173-.165a.822.822 0 0 1-.1-.254 1.62 1.62 0 0 1-.032-.332v-.204c0-.129.012-.243.035-.342.024-.101.06-.186.108-.254s.107-.121.178-.156a.557.557 0 0 1 .249-.053c.116 0 .211.02.283.06a.378.378 0 0 1 .163.17.756.756 0 0 1 .073.268h.416a1.046 1.046 0 0 0-.136-.43c-.073-.125-.176-.223-.309-.294s-.296-.106-.489-.106c-.152 0-.289.027-.411.08a.862.862 0 0 0-.311.231c-.086.1-.153.22-.2.361a1.546 1.546 0 0 0-.068.472v.201c0 .174.022.331.067.472.045.141.111.261.196.361a.878.878 0 0 0 .307.229c.12.053.254.08.404.08.195 0 .361-.035.497-.106s.242-.168.317-.291a.958.958 0 0 0 .133-.424zm2.309-.356v-.133c0-.183-.024-.346-.073-.49a1.08 1.08 0 0 0-.204-.371.868.868 0 0 0-.317-.234 1.005 1.005 0 0 0-.409-.081c-.148 0-.284.027-.407.081a.876.876 0 0 0-.317.234 1.084 1.084 0 0 0-.206.371 1.52 1.52 0 0 0-.073.49v.133c0 .183.024.347.073.492.05.145.12.269.209.371s.196.18.317.234c.123.053.259.08.407.08.15 0 .286-.027.409-.08a.879.879 0 0 0 .316-.234c.089-.102.157-.226.204-.371s.072-.309.072-.492zm-.417-.136v.136c0 .135-.013.255-.04.359a.777.777 0 0 1-.113.264.493.493 0 0 1-.431.214.556.556 0 0 1-.246-.053.527.527 0 0 1-.186-.161c-.051-.072-.09-.16-.116-.264s-.04-.224-.04-.359v-.136c0-.135.013-.254.04-.357a.784.784 0 0 1 .115-.261.5.5 0 0 1 .43-.215c.092 0 .175.018.248.055a.47.47 0 0 1 .184.16c.051.07.089.157.115.261.027.103.04.222.04.357z" style=""/>
    </symbol>

    <symbol id="icon-company" viewBox="0 0 25 32">
      <path d="M10.531 1.806h-.084a9.985 9.985 0 0 0-.388-.014h-.28c-.244 0-.494.006-.741.019a.523.523 0 0 0-.056 0 17.4 17.4 0 0 0-6.471 1.651l-.266.128v13.625l.623-.211a23.32 23.32 0 0 1 1.731-.513 21.155 21.155 0 0 1 4.982-.662v1.79a15.56 15.56 0 0 0-.655.019h-.051a19.948 19.948 0 0 0-3.833.588c-1.59.398-3.124.996-4.566 1.779V2.53A18.3 18.3 0 0 1 5.266.582 18.343 18.343 0 0 1 9.781 0h.263c.314.008.621.022.909.044.759.053 1.511.173 2.249.358v1.762a13.947 13.947 0 0 0-2.179-.329l-.045-.004c-.152-.013-.304-.026-.446-.026zm3.102 1.801c.391.03.796.044 1.205.044a19.352 19.352 0 0 0 4.747-.609c1.589-.4 3.123-.998 4.564-1.781v17.163a18.313 18.313 0 0 1-4.792 1.948 18.486 18.486 0 0 1-4.515.581 13.778 13.778 0 0 1-3.425-.404V3.274c.265.061.537.117.814.164.455.077.934.133 1.401.167zm8.734.133-.623.21c-.573.192-1.15.365-1.731.518a21.098 21.098 0 0 1-5.173.663c-.406 0-.78-.011-1.141-.034l-.497-.033v14.017l.427.038c.395.034.803.052 1.214.052a16.573 16.573 0 0 0 4.074-.527 17.107 17.107 0 0 0 3.184-1.144l.266-.128V3.742zM1.684 25.977a.912.912 0 0 0-.693-.28 1.034 1.034 0 0 0-.4.075.91.91 0 0 0-.512.518 1.023 1.023 0 0 0-.072.387v2.335c-.006.165.026.328.092.479.055.12.135.226.233.313a.815.815 0 0 0 .321.166c.114.032.231.048.349.049a.972.972 0 0 0 .892-.61.951.951 0 0 0 .075-.372v-.261h-.61v.208a.528.528 0 0 1-.036.208.359.359 0 0 1-.089.131.365.365 0 0 1-.128.067.425.425 0 0 1-.128.022.314.314 0 0 1-.286-.125.548.548 0 0 1-.081-.313v-2.177a.738.738 0 0 1 .075-.349.31.31 0 0 1 .299-.141.33.33 0 0 1 .272.131c.068.09.104.2.101.313v.202h.604v-.238a1.093 1.093 0 0 0-.279-.737zM5.31 25.95a1.051 1.051 0 0 0-1.38 0 .961.961 0 0 0-.237.327 1.099 1.099 0 0 0-.089.452v2.239a1.08 1.08 0 0 0 .089.459c.055.12.136.227.237.313a.94.94 0 0 0 .322.197 1.028 1.028 0 0 0 .728 0c.121-.044.233-.111.33-.197a.948.948 0 0 0 .23-.313 1.08 1.08 0 0 0 .089-.459v-2.239a1.08 1.08 0 0 0-.089-.452 1.015 1.015 0 0 0-.23-.327zm-.285 3.019a.405.405 0 0 1-.121.324.445.445 0 0 1-.574 0 .397.397 0 0 1-.121-.324V26.73a.405.405 0 0 1 .121-.324.445.445 0 0 1 .574 0 .397.397 0 0 1 .121.324v2.239zM10.072 29.969V25.73h-.587l-.771 2.244h-.011l-.777-2.244h-.581v4.239h.606V27.39h.011l.593 1.823h.302l.598-1.823h.011v2.579h.606zM13.513 26.027a.84.84 0 0 0-.343-.232 1.363 1.363 0 0 0-.439-.066h-.9v4.239h.604v-1.656h.311c.188.009.376-.031.545-.116a.882.882 0 0 0 .332-.324 1.02 1.02 0 0 0 .139-.369c.024-.16.035-.321.033-.482a2.421 2.421 0 0 0-.059-.606.898.898 0 0 0-.223-.39zm-.312 1.292a.547.547 0 0 1-.056.221.346.346 0 0 1-.156.149.619.619 0 0 1-.285.053h-.275v-1.441h.311a.578.578 0 0 1 .272.053.349.349 0 0 1 .142.157.62.62 0 0 1 .053.236v.282c0 .099.006.2 0 .291h-.006zM16.374 25.73h-.495l-.934 4.239h.604l.177-.911h.823l.177.911h.604l-.957-4.239zm-.557 2.751.297-1.537h.011l.296 1.537h-.604zM20.277 28.284h-.011l-.912-2.554h-.581v4.239h.604V27.42h.012l.923 2.549h.568V25.73h-.604v2.554zM23.968 25.73l-.486 1.685h-.012l-.486-1.685h-.64l.83 2.447v1.792h.604v-1.792l.83-2.447h-.64zM0 31.166h.291v.817h.198v-.817h.29v-.167H.001v.167zM2.447 30.998l-.381.984h.21l.081-.224h.392l.084.224h.215l-.391-.984h-.21zm-.031.595.134-.365.134.365h-.268zM4.866 31.62h.227v.127a.382.382 0 0 1-.234.083.244.244 0 0 1-.209-.093.411.411 0 0 1-.073-.257c0-.219.095-.329.283-.329a.206.206 0 0 1 .222.157l.195-.038c-.042-.192-.181-.289-.417-.289a.495.495 0 0 0-.344.127.494.494 0 0 0-.141.379.532.532 0 0 0 .126.369.477.477 0 0 0 .374.144.59.59 0 0 0 .417-.157v-.388h-.427v.166zM7.337 30.998h-.199v.984h.69v-.167h-.49v-.817zM9.426 30.998h-.199v.984h.199v-.984zM11.469 31.656l-.403-.657h-.193v.984h.185v-.643l.395.643h.198v-.984h-.182v.657zM13.315 31.549h.49v-.167h-.49v-.216h.528v-.167h-.727v.984h.747v-.167h-.548v-.266zM17.792 31.387h-.388v-.388h-.198v.984h.198v-.43h.388v.43h.198v-.984h-.198v.388zM19.649 31.549h.492v-.167h-.492v-.216h.529v-.167h-.727v.984h.746v-.167h-.548v-.266zM22.168 31.549c.171-.027.258-.117.258-.274a.236.236 0 0 0-.096-.219.553.553 0 0 0-.288-.058h-.417v.984h.198v-.412h.039a.261.261 0 0 1 .123.022.21.21 0 0 1 .07.072l.215.313h.237l-.12-.192a.685.685 0 0 0-.218-.236zm-.199-.136h-.146v-.247h.156a.526.526 0 0 1 .201.023c.014.013.026.029.033.046a.133.133 0 0 1-.005.111.128.128 0 0 1-.037.043.547.547 0 0 1-.201.023zM24.067 31.549h.49v-.167h-.49v-.216h.529v-.167h-.729v.984h.747v-.167h-.548v-.266z" style=""/>
    </symbol>
    <symbol id="icon-diligence" viewBox="0 0 41 32">
      <path d="M2.047 31.732h32.751c1.13 0 2.047-.916 2.047-2.047v-2.729c0-1.13-.917-2.047-2.047-2.047h-.682V7.894l3.876-3.671a2.06 2.06 0 1 0-.955-.976l-2.92 2.768V4.441c0-1.13-.916-2.047-2.047-2.047H4.778c-1.13 0-2.047.917-2.047 2.047V24.91h-.682c-1.13 0-2.047.916-2.047 2.047v2.729c0 1.13.917 2.047 2.047 2.047zM38.892 1.711a.682.682 0 1 1 0 1.363.682.682 0 0 1 0-1.363zM4.094 4.44c0-.377.306-.682.682-.682h27.292c.377 0 .682.306.682.682v2.865l-1.365 1.297V5.804a.682.682 0 0 0-.682-.682H6.14a.682.682 0 0 0-.682.682v17.058c0 .377.306.682.682.682h24.563a.682.682 0 0 0 .682-.682V10.479l1.365-1.293v15.723H4.093V4.44zm6.141 8.87a2.045 2.045 0 0 0-1.051 3.807 2.047 2.047 0 0 0 2.468-.289l2.372 1.19c.276.138.61.073.815-.157l5.042-5.672 4.956 3.714a.683.683 0 0 0 .878-.05l4.307-4.08v10.408H6.823V6.488h23.199v3.405l-4.828 4.572-4.998-3.747a.682.682 0 0 0-.919.092l-5.111 5.751-1.911-.956c.014-.082.023-.165.026-.248 0-1.13-.917-2.047-2.047-2.047zm.682 2.047a.682.682 0 1 1-1.363 0 .682.682 0 0 1 1.363 0zm4.094 10.917h6.823v.682a.682.682 0 0 1-.682.682h-5.459a.682.682 0 0 1-.682-.682v-.682zm-13.646.682c0-.377.306-.682.682-.682h11.599v.682c0 1.13.916 2.047 2.047 2.047h5.459c1.13 0 2.047-.916 2.047-2.047v-.682h11.599c.377 0 .682.305.682.682v2.729a.682.682 0 0 1-.682.682H2.047a.682.682 0 0 1-.682-.682v-2.729z"/>
    </symbol>
    <symbol id="icon-facebook" viewBox="0 0 18 32">
      <path d="M13.329 5.313h2.921V.225C15.746.156 14.013 0 11.994 0 7.782 0 4.897 2.649 4.897 7.519V12H.249v5.688h4.648V32h5.699V17.689h4.46l.708-5.688h-5.169V8.082c.001-1.644.444-2.769 2.735-2.769z" style=""/>
    </symbol>
    <symbol id="icon-foster-peters" viewBox="0 0 66 32">
      <path d="M10.207 9.77h-.002c-1.862 0-3.371 1.361-3.371 3.04v.002c0 1.679 1.509 3.04 3.371 3.04h.002c1.862 0 3.371-1.361 3.371-3.04v-.002c0-1.679-1.509-3.04-3.371-3.04zM35.092 8.798c-.005-2.332-1.035-4.567-2.863-6.215S27.922.005 25.336 0c-2.587.004-5.067.932-6.896 2.582s-2.86 3.884-2.865 6.217v12.858s19.515-1.96 19.517-12.856v-.002zM0 25.877c.005 1.622.721 3.177 1.994 4.325s2.996 1.794 4.796 1.799c1.799-.005 3.523-.651 4.795-1.798s1.989-2.701 1.994-4.323v-8.947S0 18.298 0 25.878zm6.789 1.603c-.352 0-.695-.094-.988-.27s-.52-.426-.655-.719-.17-.615-.101-.926c.069-.311.238-.597.487-.821s.565-.377.91-.439c.345-.062.702-.03 1.027.091s.603.327.798.59c.195.264.3.573.3.891.001.211-.044.42-.133.615s-.22.373-.385.522c-.165.149-.362.268-.578.349s-.448.123-.682.123v-.006zM19.207 24.597v3.329h-.686v-3.329h.686zm1.326 1.422v.535h-1.514v-.535h1.514zm.16-1.422v.537h-1.674v-.537h1.674zm3.133 1.587v.158c0 .253-.034.48-.103.681s-.165.373-.29.515a1.25 1.25 0 0 1-.448.322 1.423 1.423 0 0 1-.574.112c-.209 0-.4-.037-.574-.112a1.29 1.29 0 0 1-.448-.322 1.5 1.5 0 0 1-.295-.514 2.09 2.09 0 0 1-.103-.681v-.158c0-.255.034-.482.103-.681.069-.201.165-.373.29-.514.127-.142.276-.25.448-.325.174-.075.365-.112.574-.112.21 0 .402.037.574.112.174.075.323.183.448.325.127.142.224.313.293.514.07.2.105.427.105.681zm-.693.158v-.162c0-.177-.016-.332-.048-.466s-.079-.247-.142-.338a.623.623 0 0 0-.538-.277.614.614 0 0 0-.535.277c-.061.091-.107.204-.139.338s-.048.29-.048.466v.162c0 .175.016.331.048.466.032.134.079.248.142.341.063.091.139.161.229.208s.193.071.309.071c.116 0 .219-.024.309-.071s.165-.117.226-.208c.061-.093.107-.207.139-.341.032-.136.048-.291.048-.466zm2.92.713a.447.447 0 0 0-.027-.16.308.308 0 0 0-.096-.133c-.047-.041-.114-.082-.199-.121s-.196-.081-.332-.123a4.267 4.267 0 0 1-.43-.165 1.775 1.775 0 0 1-.357-.213.952.952 0 0 1-.242-.286.786.786 0 0 1-.087-.377.79.79 0 0 1 .091-.377.872.872 0 0 1 .256-.293c.11-.082.239-.146.389-.19.151-.044.316-.066.496-.066.245 0 .46.044.642.133s.325.21.425.364c.102.154.153.33.153.528h-.681a.513.513 0 0 0-.062-.256.421.421 0 0 0-.183-.176.648.648 0 0 0-.306-.064.7.7 0 0 0-.297.055.393.393 0 0 0-.178.144.351.351 0 0 0-.059.201c0 .056.014.107.041.153.029.046.072.088.128.128s.126.077.208.112c.082.035.178.069.286.103.181.055.341.117.478.185.139.069.255.146.348.231a.851.851 0 0 1 .281.658c0 .145-.028.274-.085.389s-.138.211-.245.29c-.107.079-.234.139-.382.181s-.313.062-.496.062c-.165 0-.327-.021-.487-.064a1.486 1.486 0 0 1-.437-.199c-.13-.088-.233-.201-.311-.338s-.117-.3-.117-.487h.688c0 .104.016.191.048.263s.077.13.135.174c.059.044.13.076.21.096.082.02.172.03.27.03a.745.745 0 0 0 .293-.05.356.356 0 0 0 .228-.341zm2.641-2.458v3.329h-.684v-3.329h.684zm1.024 0v.537h-2.716v-.537h2.716zm2.625 2.794v.535h-1.772v-.535h1.772zm-1.548-2.794v3.329h-.686v-3.329h.686zm1.317 1.356v.521h-1.541v-.521h1.541zm.229-1.356v.537h-1.77v-.537h1.77zm.402 0h1.242c.255 0 .473.038.656.114.184.076.326.189.425.338s.149.333.149.551c0 .178-.03.332-.091.46a.848.848 0 0 1-.254.318 1.295 1.295 0 0 1-.382.201l-.217.114h-1.079l-.005-.535h.803c.12 0 .22-.021.3-.064s.139-.102.178-.178a.552.552 0 0 0 .062-.265c0-.107-.02-.199-.059-.277s-.1-.137-.181-.178-.182-.062-.304-.062h-.556v2.792h-.686v-3.329zm1.862 3.329-.759-1.484.725-.005.768 1.457v.032h-.734zm3.601-1.186h-.848v-.535h.848a.69.69 0 0 0 .32-.064c.082-.044.143-.105.181-.183s.057-.165.057-.263c0-.099-.019-.191-.057-.277s-.098-.154-.181-.206-.189-.078-.32-.078h-.611v2.792h-.686v-3.329h1.297c.261 0 .484.047.67.142.187.093.331.222.43.386s.149.353.149.565c0 .215-.05.401-.149.558s-.242.278-.43.364a1.602 1.602 0 0 1-.67.128zm3.956.651v.535H40.39v-.535h1.772zm-1.548-2.794v3.329h-.686v-3.329h.686zm1.317 1.356v.521H40.39v-.521h1.541zm.229-1.356v.537h-1.77v-.537h1.77zm1.936 0v3.329h-.684v-3.329h.684zm1.025 0v.537h-2.716v-.537h2.716zm2.625 2.794v.535h-1.772v-.535h1.772zm-1.548-2.794v3.329h-.686v-3.329h.686zm1.317 1.356v.521h-1.541v-.521h1.541zm.229-1.356v.537h-1.77v-.537h1.77zm.402 0h1.242c.255 0 .473.038.656.114.184.076.326.189.425.338s.149.333.149.551c0 .178-.031.332-.091.46a.848.848 0 0 1-.254.318 1.295 1.295 0 0 1-.382.201l-.217.114h-1.079l-.005-.535h.803c.12 0 .22-.021.3-.064s.139-.102.178-.178a.552.552 0 0 0 .062-.265c0-.107-.02-.199-.059-.277s-.1-.137-.181-.178a.669.669 0 0 0-.304-.062h-.556v2.792h-.686v-3.329zm1.861 3.329-.759-1.484.725-.005.768 1.457v.032h-.734zm2.872-.871a.447.447 0 0 0-.027-.16.308.308 0 0 0-.096-.133c-.047-.041-.114-.082-.199-.121s-.196-.081-.332-.123a4.267 4.267 0 0 1-.43-.165 1.775 1.775 0 0 1-.357-.213.952.952 0 0 1-.242-.286.786.786 0 0 1-.087-.377c0-.139.03-.264.091-.377a.872.872 0 0 1 .256-.293c.11-.082.239-.146.389-.19.151-.044.316-.066.496-.066.245 0 .46.044.642.133s.325.21.425.364c.102.154.153.33.153.528h-.681a.513.513 0 0 0-.062-.256.421.421 0 0 0-.183-.176.648.648 0 0 0-.306-.064.7.7 0 0 0-.297.055.393.393 0 0 0-.178.144.351.351 0 0 0-.059.201c0 .056.014.107.041.153.029.046.072.088.128.128s.126.077.208.112c.082.035.178.069.286.103.181.055.341.117.478.185.139.069.255.146.348.231a.851.851 0 0 1 .281.658c0 .145-.028.274-.085.389s-.138.211-.245.29c-.107.079-.234.139-.382.181s-.313.062-.496.062c-.165 0-.327-.021-.487-.064a1.486 1.486 0 0 1-.437-.199c-.13-.088-.233-.201-.311-.338s-.117-.3-.117-.487h.688c0 .104.016.191.048.263s.077.13.135.174c.059.044.13.076.21.096.082.02.172.03.27.03a.745.745 0 0 0 .293-.05.356.356 0 0 0 .228-.341z" style=""/>
    </symbol>
    <symbol id="icon-instagram" viewBox="0 0 32 32">
<path style="" d="M31.968 9.408c-0.074-1.7-0.35-2.87-0.744-3.882-0.424-1.112-1.053-2.060-1.849-2.839l-0.001-0.001c-0.78-0.791-1.724-1.417-2.778-1.824l-0.054-0.018c-1.020-0.394-2.18-0.67-3.88-0.744-1.716-0.080-2.262-0.1-6.602-0.1-4.346 0-4.89 0.020-6.596 0.094-1.7 0.074-2.868 0.35-3.88 0.744-1.112 0.424-2.060 1.053-2.839 1.849l-0.001 0.001c-0.792 0.78-1.419 1.724-1.826 2.778l-0.018 0.054c-0.394 1.020-0.668 2.18-0.744 3.88-0.080 1.714-0.1 2.26-0.1 6.602 0 4.346 0.020 4.89 0.094 6.596 0.074 1.7 0.35 2.87 0.744 3.882 0.406 1.076 1.038 2.038 1.85 2.838 0.8 0.812 1.77 1.444 2.832 1.844 1.020 0.394 2.18 0.67 3.882 0.744 1.706 0.076 2.25 0.094 6.596 0.094 4.344 0 4.888-0.020 6.594-0.094 1.7-0.074 2.87-0.35 3.882-0.744 2.157-0.85 3.832-2.525 4.663-4.627l0.019-0.055c0.394-1.020 0.67-2.18 0.744-3.882 0.076-1.706 0.094-2.25 0.094-6.596 0-4.344-0.006-4.888-0.080-6.594zM29.088 22.472c-0.070 1.564-0.332 2.408-0.552 2.97-0.551 1.4-1.638 2.488-3.002 3.027l-0.036 0.013c-0.562 0.218-1.412 0.48-2.968 0.548-1.688 0.076-2.194 0.094-6.464 0.094s-4.782-0.020-6.464-0.094c-1.564-0.068-2.408-0.33-2.97-0.55-0.721-0.269-1.335-0.676-1.837-1.193l-0.001-0.001c-0.516-0.504-0.923-1.118-1.183-1.804l-0.011-0.034c-0.22-0.562-0.48-1.412-0.55-2.968-0.074-1.688-0.094-2.196-0.094-6.464 0-4.27 0.020-4.782 0.094-6.464 0.070-1.564 0.332-2.408 0.55-2.97 0.256-0.694 0.664-1.324 1.2-1.838 0.52-0.532 1.144-0.938 1.84-1.194 0.56-0.22 1.412-0.48 2.968-0.55 1.688-0.074 2.194-0.094 6.464-0.094 4.276 0 4.78 0.020 6.464 0.094 1.562 0.070 2.406 0.332 2.968 0.55 0.694 0.256 1.326 0.662 1.84 1.194 0.53 0.52 0.936 1.144 1.192 1.84 0.22 0.56 0.482 1.41 0.55 2.968 0.076 1.688 0.094 2.194 0.094 6.464s-0.018 4.77-0.092 6.456z"></path>
<path style="" d="M16.060 7.782c-4.462 0.102-8.041 3.743-8.041 8.22s3.578 8.118 8.031 8.22l0.009 0c4.462-0.102 8.041-3.743 8.041-8.22s-3.578-8.118-8.031-8.22l-0.009-0zM16.060 21.336c-2.946 0-5.334-2.388-5.334-5.334s2.388-5.334 5.334-5.334v0c2.946 0 5.334 2.388 5.334 5.334s-2.388 5.334-5.334 5.334v0zM26.524 7.458c0 1.060-0.86 1.92-1.92 1.92s-1.92-0.86-1.92-1.92v0c0-1.060 0.86-1.92 1.92-1.92s1.92 0.86 1.92 1.92v0z"></path>
</symbol>
    <symbol id="icon-linkedin" viewBox="0 0 32 32">
      <path d="M31.992 32v-.001H32V20.263c0-5.741-1.236-10.164-7.948-10.164-3.227 0-5.392 1.771-6.276 3.449h-.093v-2.913h-6.364v21.364h6.627V21.42c0-2.785.528-5.479 3.977-5.479 3.399 0 3.449 3.179 3.449 5.657v10.401h6.62zM.528 10.636h6.635V32H.528V10.636zM3.843 0C1.722 0 0 1.721 0 3.843s1.721 3.879 3.843 3.879c2.121 0 3.843-1.757 3.843-3.879A3.846 3.846 0 0 0 3.843 0z" style=""/>
    </symbol>
    <symbol id="icon-punctuality" viewBox="0 0 31 32">
      <path d="M30.797 15.301C30.795 6.849 23.942-.002 15.489 0S.186 6.855.188 15.308a15.304 15.304 0 0 0 10.649 14.576.662.662 0 0 0 .529-.065.637.637 0 0 0 .283-.356l3.865-12.25a1.912 1.912 0 1 0-.84-3.635L9.568 8.471a.637.637 0 0 0-.902.902l5.103 5.109a1.876 1.876 0 0 0 .536 2.309l-3.683 11.673C3.344 25.783-.382 17.71 2.299 10.432S13.053-.572 20.331 2.109c7.278 2.681 11.004 10.754 8.323 18.032a14.042 14.042 0 0 1-7.462 7.973l-.398-1.874a.637.637 0 0 0-1.049-.344l-3.837 3.426a.637.637 0 0 0 .231 1.084l4.899 1.564a.638.638 0 0 0 .819-.74l-.391-1.839a15.255 15.255 0 0 0 9.329-14.089zm-15.305-.637a.638.638 0 1 1 0 1.277.638.638 0 0 1 0-1.277zm2.101 14.864 2.184-1.948.603 2.84-2.787-.892z"/>
    </symbol>
    <symbol id="icon-strategy" viewBox="0 0 30 32">
      <path d="m29.773 22.098-8.443-8.505.937-4.615c.242.094.499.144.758.146h.006a2.159 2.159 0 1 0-2.008-1.435l-4.96.605L7.972.161a.534.534 0 0 0-.377-.16.532.532 0 0 0-.373.155L5.709 1.66a.534.534 0 0 0 0 .754l.814.826a14.943 14.943 0 0 0 2.519 17.663.513.513 0 0 0 .146.098c-.034.18-.051.364-.052.547v6.187h-6.4a2.67 2.67 0 0 0-2.667 2.667v1.067c0 .295.239.533.533.533h24.533a.533.533 0 0 0 .533-.533v-1.067a2.67 2.67 0 0 0-2.667-2.667h-6.4v-2.742a15.09 15.09 0 0 0 3.049.32 14.854 14.854 0 0 0 7.04-1.783l.818.823a.534.534 0 0 0 .377.16.532.532 0 0 0 .373-.155l1.513-1.504a.534.534 0 0 0 0-.754zM22.28 6.233a1.067 1.067 0 1 1 .753 1.822h-.003a1.067 1.067 0 0 1-.747-1.823h-.002zm-1.256 3.505-.598 2.946-1.175-1.182 1.774-1.763zm-.605-.902-1.92 1.909-1.485-1.493 3.405-.415zM23.004 28.8a1.6 1.6 0 0 1 1.6 1.6v.533H1.137V30.4a1.6 1.6 0 0 1 1.6-1.6h20.267zm-7.467-2.133v1.067h-5.333v-1.067h5.333zM10.204 25.6v-4.053c0-1.294 1.196-2.347 2.667-2.347s2.667 1.053 2.667 2.347V25.6h-5.333zm6.4-1.696v-2.357c0-1.882-1.675-3.413-3.733-3.413A3.8 3.8 0 0 0 9.59 19.92 13.87 13.87 0 0 1 7.311 4.033l18.602 18.708a13.818 13.818 0 0 1-9.309 1.163zm11.289-.684L6.836 2.039l.755-.752 7.935 7.98c.004 0 .006.007.01.01l13.115 13.191-.757.752z"/>
    </symbol>
    <symbol id="icon-third-client" viewBox="0 0 34 32">
      <path d="M5.315 31.394c.013 0 .025.003.036.007s.022.011.03.019l.172.162a1.413 1.413 0 0 1-.485.307 1.897 1.897 0 0 1-.687.11 1.853 1.853 0 0 1-.646-.103 1.414 1.414 0 0 1-.487-.291 1.3 1.3 0 0 1-.315-.449 1.49 1.49 0 0 1-.11-.576 1.338 1.338 0 0 1 .453-1.027c.147-.127.323-.226.517-.293a2.07 2.07 0 0 1 .666-.103c.211-.004.422.028.618.094.171.063.327.151.463.26l-.144.173a.125.125 0 0 1-.037.031.098.098 0 0 1-.058.013.144.144 0 0 1-.062-.018l-.078-.046-.108-.059a1.198 1.198 0 0 0-.34-.103 1.567 1.567 0 0 0-.256-.018 1.421 1.421 0 0 0-.478.077 1.109 1.109 0 0 0-.375.217 1 1 0 0 0-.243.346 1.13 1.13 0 0 0-.088.457c-.003.158.027.315.088.464.053.127.134.244.239.344.099.093.221.166.358.214.141.05.292.075.444.074.088.001.176-.004.263-.015a1.068 1.068 0 0 0 .569-.237.13.13 0 0 1 .082-.029zM10.292 30.58c.003.195-.037.389-.116.573-.07.166-.181.318-.325.445s-.317.226-.509.292a2.14 2.14 0 0 1-1.31 0 1.514 1.514 0 0 1-.506-.293 1.291 1.291 0 0 1-.327-.449 1.473 1.473 0 0 1 0-1.147c.074-.167.185-.32.327-.451.144-.123.317-.218.506-.282.421-.14.889-.14 1.31 0 .191.066.365.166.508.293a1.316 1.316 0 0 1 .441 1.02zm-.453 0a1.196 1.196 0 0 0-.082-.46.941.941 0 0 0-.231-.344 1.012 1.012 0 0 0-.364-.217 1.533 1.533 0 0 0-.952 0 1.026 1.026 0 0 0-.364.217.926.926 0 0 0-.233.344c-.11.3-.11.621 0 .92a.939.939 0 0 0 .233.344c.101.094.225.168.364.215.307.098.645.098.952 0 .139-.048.263-.121.364-.215a.967.967 0 0 0 .231-.344c.058-.148.085-.304.082-.46zM13.687 31.062l.045.103c.017-.037.032-.07.05-.103a.833.833 0 0 1 .056-.101l1.101-1.71c.022-.029.041-.048.063-.053a.273.273 0 0 1 .09-.009h.325v2.781h-.386v-2.132a.769.769 0 0 1 0-.096l-1.107 1.734c-.014.026-.037.048-.065.063s-.061.023-.095.023h-.062c-.034 0-.066-.008-.095-.023s-.051-.037-.065-.064l-1.14-1.745V31.962h-.373v-2.776h.325a.336.336 0 0 1 .09.009c.027.011.048.03.06.053l1.125 1.712a.61.61 0 0 1 .056.099zM17.83 30.924v1.042h-.431v-2.777h.961c.181-.003.362.017.536.061.139.034.269.093.379.173a.718.718 0 0 1 .215.272.814.814 0 0 1 .073.355.774.774 0 0 1-.313.633c-.111.084-.24.146-.381.184a1.847 1.847 0 0 1-.519.064l-.521-.007zm0-.298h.521c.113.001.226-.013.334-.042a.727.727 0 0 0 .241-.12.532.532 0 0 0 .198-.418c.005-.077-.01-.154-.043-.226s-.085-.137-.151-.19a.935.935 0 0 0-.579-.149h-.521v1.145zM23.621 31.97h-.34a.164.164 0 0 1-.095-.026.171.171 0 0 1-.056-.064l-.293-.672h-1.471l-.304.672a.162.162 0 0 1-.151.091h-.34l1.293-2.782h.448l1.31 2.782zm-2.133-1.033h1.215l-.513-1.132a1.783 1.783 0 0 1-.097-.261l-.05.145a1.317 1.317 0 0 1-.047.118l-.509 1.13zM25.483 29.201a.18.18 0 0 1 .065.05l1.885 2.097v-2.16h.386v2.782h-.215a.2.2 0 0 1-.088-.017.224.224 0 0 1-.069-.052l-1.883-2.095a.769.769 0 0 1 0 .096v2.068h-.386v-2.782h.228a.206.206 0 0 1 .078.013zM30.993 30.863v1.104h-.431v-1.104l-1.191-1.675h.386a.158.158 0 0 1 .093.024.248.248 0 0 1 .058.063l.745 1.081c.03.046.056.088.078.129s.039.079.054.118l.056-.12a.947.947 0 0 1 .073-.127l.735-1.088a.26.26 0 0 1 .056-.059.15.15 0 0 1 .093-.028h.39l-1.194 1.683zM13.474 24.521c.187.02.377.037.569.052 2.907-1.111 5.366-2.93 7.07-5.228s2.577-4.975 2.511-7.696L20.42 8.912c.651 2.896.347 5.89-.88 8.647s-3.327 5.167-6.066 6.962z" style=""/>
      <path d="m12.33 24.393.086.015c2.927-1.789 5.158-4.286 6.406-7.17s1.454-6.021.592-9.006l-4.563-3.899c1.846 3.205 2.589 6.791 2.142 10.342s-2.063 6.921-4.663 9.718zM27.805 14.862c-.775 2.989-2.658 5.685-5.369 7.687a17.175 17.175 0 0 1-2.551 1.565c2.207-.554 4.236-1.534 5.93-2.865s3.008-2.975 3.84-4.808l-1.851-1.579z" style=""/>
      <path d="m27.079 14.422-2.635-2.251c-.05 2.567-.904 5.075-2.473 7.264s-3.795 3.98-6.448 5.185h.013c.591 0 1.182-.03 1.769-.09 2.479-.865 4.669-2.24 6.375-4.004s2.874-3.861 3.4-6.104zM12.711 2.689 9.568 0c-2.81.928-5.227 2.559-6.934 4.679S.009 9.311 0 11.885c.011 2.844 1.131 5.604 3.184 7.843s4.921 3.829 8.151 4.518c2.883-3.001 4.571-6.709 4.818-10.586s-.958-7.72-3.442-10.971zM34.341 14.008c-.011-3.374-1.585-6.608-4.378-8.994s-6.577-3.731-10.526-3.74a16.975 16.975 0 0 0-5.337.849l19.245 16.443c.659-1.454.997-2.999.995-4.558z" style=""/>
    </symbol>
    <symbol id="icon-diagram" viewBox="0 0 32 32">
      <path fill="#4d5ae5" d="M14.926 14.965h1.066v4.798h-1.066v-4.797zM19.19 17.097h1.066v2.665H19.19v-2.665zM10.661 18.696h1.066v1.066h-1.066v-1.066zM7.463 18.163h1.066v1.599H7.463v-1.599z" style="fill:var(--color1, #4d5ae5)"/>
      <path fill="#2e2f42" d="M1.599 28.291h25.587a1.6 1.6 0 0 0 1.599-1.599V24.56a1.6 1.6 0 0 0-1.599-1.599h-.533V9.668L29.681 6.8a1.608 1.608 0 1 0-.746-.763L26.654 8.2V6.97a1.6 1.6 0 0 0-1.599-1.599H3.733A1.6 1.6 0 0 0 2.134 6.97v15.992h-.533a1.6 1.6 0 0 0-1.599 1.599v2.132a1.6 1.6 0 0 0 1.599 1.599zM30.384 4.837a.533.533 0 1 1 0 1.067.533.533 0 0 1 0-1.067zM3.198 6.969c0-.294.239-.533.533-.533h21.322c.294 0 .533.239.533.533v2.239l-1.066 1.013V8.035a.533.533 0 0 0-.533-.533H4.797a.533.533 0 0 0-.533.533v13.326c0 .294.239.533.533.533h19.19a.533.533 0 0 0 .533-.533v-9.674l1.066-1.01v12.284H3.198V6.969zm4.798 6.93a1.598 1.598 0 1 0 1.107 2.749l1.853.93a.532.532 0 0 0 .636-.123l3.939-4.431 3.872 2.901a.533.533 0 0 0 .686-.039l3.365-3.188v8.131H5.33V8.569h18.124v2.66l-3.771 3.572-3.904-2.927a.533.533 0 0 0-.718.072l-3.993 4.493-1.493-.746c.011-.064.018-.129.02-.193a1.6 1.6 0 0 0-1.599-1.599zm.533 1.599a.533.533 0 1 1-1.067 0 .533.533 0 0 1 1.067 0zm3.198 8.529h5.331v.533a.533.533 0 0 1-.533.533h-4.264a.533.533 0 0 1-.533-.533v-.533zm-10.661.533c0-.294.239-.533.533-.533h9.062v.533a1.6 1.6 0 0 0 1.599 1.599h4.264a1.6 1.6 0 0 0 1.599-1.599v-.533h9.062c.294 0 .533.239.533.533v2.132a.533.533 0 0 1-.533.533H1.598a.533.533 0 0 1-.533-.533V24.56z" style="fill:var(--color2, #2e2f42)"/>
    </symbol>
    <symbol id="icon-antenna" viewBox="0 0 32 32">
      <path fill="#2e2f42" d="m30.773 22.098-8.443-8.505.937-4.615c.242.094.499.144.758.146h.006a2.159 2.159 0 1 0-2.008-1.435l-4.96.605L8.972.161a.534.534 0 0 0-.377-.16.532.532 0 0 0-.373.155L6.709 1.66a.534.534 0 0 0 0 .754l.814.826a14.943 14.943 0 0 0 2.519 17.663.513.513 0 0 0 .146.098c-.034.18-.051.364-.052.547v6.187h-6.4a2.67 2.67 0 0 0-2.667 2.667v1.067c0 .295.239.533.533.533h24.533a.533.533 0 0 0 .533-.533v-1.067a2.67 2.67 0 0 0-2.667-2.667h-6.4v-2.742a15.09 15.09 0 0 0 3.049.32 14.854 14.854 0 0 0 7.04-1.783l.818.823a.534.534 0 0 0 .377.16.532.532 0 0 0 .373-.155l1.513-1.504a.534.534 0 0 0 0-.754zM23.28 6.233a1.067 1.067 0 1 1 .753 1.822h-.003a1.067 1.067 0 0 1-.747-1.823h-.002zm-1.256 3.505-.598 2.946-1.175-1.182 1.774-1.763zm-.605-.902-1.92 1.909-1.485-1.493 3.405-.415zM24.004 28.8a1.6 1.6 0 0 1 1.6 1.6v.533H2.137V30.4a1.6 1.6 0 0 1 1.6-1.6h20.267zm-7.467-2.133v1.067h-5.333v-1.067h5.333zM11.204 25.6v-4.053c0-1.294 1.196-2.347 2.667-2.347s2.667 1.053 2.667 2.347V25.6h-5.333zm6.4-1.696v-2.357c0-1.882-1.675-3.413-3.733-3.413a3.8 3.8 0 0 0-3.281 1.786A13.87 13.87 0 0 1 8.311 4.033l18.602 18.708a13.818 13.818 0 0 1-9.309 1.163zm11.289-.684L7.836 2.039l.755-.752 7.935 7.98c.004 0 .006.007.01.01l13.115 13.191-.757.752z" style="fill:var(--color2, #2e2f42)"/>
      <path fill="#4d5ae5" d="M13.876 20.267h-.005a1.6 1.6 0 1 0-.004 3.2h.005a1.6 1.6 0 1 0 .004-3.2zm.373 1.978a.534.534 0 0 1-.752-.756.534.534 0 0 1 .373-.155.534.534 0 0 1 .374.911h.005z" style="fill:var(--color1, #4d5ae5)"/>
    </symbol>
    <symbol id="icon-astronaut" viewBox="0 0 32 32">
      <path fill="#4d5ae5" d="M31.974 4.524a.534.534 0 0 0-.43-.363l-1.91-.278-.855-1.731c-.179-.365-.777-.365-.956 0l-.855 1.731-1.91.278a.535.535 0 0 0-.296.91l1.383 1.348-.326 1.903c-.034.2.048.402.212.522a.53.53 0 0 0 .562.04l1.709-.899 1.709.899a.536.536 0 0 0 .775-.563l-.326-1.903 1.383-1.348a.536.536 0 0 0 .135-.547zm-2.463 1.327a.534.534 0 0 0-.153.472l.191 1.114-1-.526a.533.533 0 0 0-.498 0l-1.001.526.191-1.114a.534.534 0 0 0-.153-.472l-.81-.789 1.119-.163a.532.532 0 0 0 .402-.292l.5-1.013.5 1.013a.535.535 0 0 0 .402.292l1.119.163-.809.789zM26.134 20.522h-1.067v1.067h1.067v-1.067zM26.134 22.656h-1.067v1.067h1.067v-1.067zM27.2 21.589h-1.067v1.067H27.2v-1.067zM25.067 21.589H24v1.067h1.067v-1.067zM22.4 26.389h-1.067v1.067H22.4v-1.067zM22.4 28.522h-1.067v1.067H22.4v-1.067zM23.467 27.456H22.4v1.067h1.067v-1.067zM21.333 27.456h-1.067v1.067h1.067v-1.067zM16 24.256h-1.067v1.067H16v-1.067zM16 26.389h-1.067v1.067H16v-1.067zM17.067 25.322H16v1.067h1.067v-1.067zM14.933 25.322h-1.067v1.067h1.067v-1.067zM5.867 6.122H4.8v1.067h1.067V6.122zM5.867 8.255H4.8v1.067h1.067V8.255z" style="fill:var(--color1, #4d5ae5)"/>
      <path fill="#4d5ae5" d="M6.933 7.189H5.866v1.067h1.067V7.189zM4.8 7.189H3.733v1.067H4.8V7.189z" style="fill:var(--color1, #4d5ae5)"/>
      <path fill="#2e2f42" d="M24.715 14.159a1.775 1.775 0 0 0-1.188-.705 1.778 1.778 0 0 0-1.34.352l-1.252.96-1.898 1.417-1.358-.541c2.421-1.086 4.114-3.508 4.114-6.32 0-3.823-3.123-6.933-6.961-6.933s-6.961 3.11-6.961 6.933a6.86 6.86 0 0 0 1.12 3.758l-2.764-.024h-.005c-.009 0-.015.004-.023.005a.515.515 0 0 0-.155.031l-.038.013c-.006.003-.013.003-.019.006l-3.233 1.596-.001.001-1.893.911a.397.397 0 0 0-.063.035 1.779 1.779 0 0 0-.598 2.295c.22.429.595.745 1.056.889a1.776 1.776 0 0 0 1.378-.128l1.388-.738 2.264-1.169 1.357-.008L2.2 22.211l-.002.001-1.339 1.333c-.316.315-.49.732-.49 1.178s.174.863.49 1.179c.325.323.752.485 1.179.485s.854-.162 1.18-.485l1.314-1.309 1.741-1.3.901.897-1.762 1.754-.002.001-1.339 1.333c-.316.315-.49.732-.49 1.178s.174.863.49 1.179c.325.323.753.485 1.18.485s.855-.162 1.18-.485l3.482-3.467.001-.002 1.01-1-.004-.004c.006-.006.015-.009.022-.015l5.166-5.658 3.471.494a.52.52 0 0 0 .262-.033c.018-.006.033-.015.05-.023.019-.01.039-.015.058-.027l3.213-2.133c.012-.008.018-.021.029-.029.013-.01.029-.014.041-.026l1.271-1.191c.662-.62.753-1.635.212-2.362zM2.13 17.77a.714.714 0 0 1-.558.052.717.717 0 0 1-.213-1.26l1.314-.632.449 1.313-.992.527zm3.498-1.828-1.548.8-.439-1.283 2.027-1.001-.04 1.484zm15.099-6.62a5.79 5.79 0 0 1-.599 2.559l-4.181-1.899a1.863 1.863 0 0 0-.788-1.388l1.464-4.86c2.378.756 4.105 2.974 4.105 5.588zm-11.789 0c0-3.235 2.644-5.867 5.894-5.867.253 0 .5.021.745.052l-1.432 4.754c-.019-.001-.037-.006-.057-.006-1.033 0-1.873.837-1.873 1.867s.84 1.867 1.873 1.867c.694 0 1.294-.383 1.618-.945l3.862 1.755a5.894 5.894 0 0 1-4.737 2.39c-3.25 0-5.894-2.632-5.894-5.867zm5.956.8c0 .441-.362.8-.806.8s-.806-.359-.806-.8c0-.441.362-.8.806-.8s.806.359.806.8zM2.465 25.146a.608.608 0 0 1-.854.001.592.592 0 0 1 0-.844l.962-.958.851.848-.959.955zm3.214 3.734a.608.608 0 0 1-.855.001.592.592 0 0 1 0-.844l.963-.959.852.848-.96.955zm3.481-3.469-.002.001-1.765 1.76-.852-.848 1.763-1.755.002-.001c.04-.04.065-.088.09-.135.007-.014.02-.026.026-.04.017-.041.019-.085.026-.129.003-.025.014-.047.014-.073 0-.036-.013-.07-.02-.106-.006-.032-.006-.065-.019-.095a.55.55 0 0 0-.091-.138c-.01-.012-.014-.027-.025-.038h-.001l-.001-.002-1.607-1.6c-.017-.017-.039-.024-.058-.038a.507.507 0 0 0-.087-.058.515.515 0 0 0-.093-.033.507.507 0 0 0-.103-.02.5.5 0 0 0-.095.005.53.53 0 0 0-.104.02.477.477 0 0 0-.094.045c-.02.011-.042.015-.061.029L4.23 23.486l-.901-.897 2.399-2.386 4.361 4.289-.928.919zm6.819-7.017c-.015-.002-.03.004-.045.003a.556.556 0 0 0-.3.075.492.492 0 0 0-.083.061c-.013.011-.028.017-.04.029l-4.698 5.146-4.328-4.257 2.833-2.818a.534.534 0 0 0-.379-.911v-.001l-2.219.013.028-1.607 3.104.027a6.947 6.947 0 0 0 4.981 2.101c.437 0 .864-.045 1.279-.123.04.032.079.065.13.085l2.41.96.152.758.178.885-3.003-.427zm4.041.178-.313-1.558 1.446-1.08.947 1.257-2.08 1.381zm3.754-2.831-.838.785-.931-1.236.831-.637a.735.735 0 0 1 .543-.143.718.718 0 0 1 .48.284.713.713 0 0 1-.085.947z" style="fill:var(--color2, #2e2f42)"/>
      <path fill="#2e2f42" d="m13.602 18.544-2.143-2.133a.534.534 0 0 0-.753 0l-2.142 2.133a.537.537 0 0 0 0 .756l2.142 2.133a.536.536 0 0 0 .753 0l2.143-2.133a.535.535 0 0 0 0-.756zm-2.519 1.759-1.387-1.381 1.387-1.381 1.387 1.381-1.387 1.381zM17.164 5.071l-.258 1.036c.071.018 1.738.452 1.738 2.149h1.067c0-2.017-1.666-2.965-2.547-3.185zM19.711 9.322h-1.067v1.067h1.067V9.322z" style="fill:var(--color2, #2e2f42)"/>
    </symbol>
    <symbol id="icon-clock" viewBox="0 0 32 32">
      <path fill="#2e2f42" d="M31.297 15.301C31.295 6.849 24.442-.002 15.989 0S.686 6.855.688 15.308a15.304 15.304 0 0 0 10.649 14.576.662.662 0 0 0 .529-.065.637.637 0 0 0 .283-.356l3.865-12.25a1.912 1.912 0 1 0-.84-3.635l-5.106-5.107a.637.637 0 0 0-.902.902l5.103 5.109a1.876 1.876 0 0 0 .536 2.309l-3.683 11.673C3.844 25.783.118 17.71 2.799 10.432S13.553-.572 20.831 2.109c7.278 2.681 11.004 10.754 8.323 18.032a14.042 14.042 0 0 1-7.462 7.973l-.398-1.874a.637.637 0 0 0-1.049-.344l-3.837 3.426a.637.637 0 0 0 .231 1.084l4.899 1.564a.638.638 0 0 0 .819-.74l-.391-1.839a15.255 15.255 0 0 0 9.329-14.089zm-15.305-.637a.638.638 0 1 1 0 1.277.638.638 0 0 1 0-1.277zm2.101 14.864 2.184-1.948.603 2.84-2.787-.892z" style="fill:var(--color2, #2e2f42)"/>
      <path fill="#4d5ae5" d="M15.354 3.185V4.46a.638.638 0 1 0 1.276 0V3.185a.638.638 0 0 0-1.276 0zM3.876 14.664a.638.638 0 0 0 0 1.276h1.275a.638.638 0 1 0 0-1.276H3.876zM28.108 15.939a.638.638 0 1 0 0-1.276h-1.275a.638.638 0 0 0 0 1.276h1.275z" style="fill:var(--color1, #4d5ae5)"/>
    </symbol>
    <symbol id="icon-tag-line" viewBox="0 0 59 32">
<path d="M30.589 15.682c-0.219-0.282-0.35-0.64-0.35-1.029 0-0.038 0.001-0.076 0.004-0.114l-0 0.005v-1.65c0-0.506 0.115-0.89 0.345-1.153s0.624-0.394 1.183-0.393c0.526 0 0.898 0.112 1.119 0.336 0.24 0.286 0.357 0.635 0.33 0.987v0.389h-0.939v-0.393c0.003-0.129-0.006-0.257-0.027-0.385-0.016-0.093-0.064-0.172-0.133-0.228l-0.001-0.001c-0.084-0.056-0.188-0.090-0.3-0.090-0.014 0-0.029 0.001-0.043 0.002l0.002-0c-0.012-0.001-0.027-0.001-0.041-0.001-0.118 0-0.228 0.036-0.319 0.097l0.002-0.001c-0.078 0.062-0.133 0.149-0.155 0.249l-0.001 0.003c-0.024 0.113-0.037 0.243-0.037 0.376 0 0.011 0 0.023 0 0.034l-0-0.002v2.003c-0.002 0.023-0.003 0.049-0.003 0.075 0 0.178 0.046 0.346 0.126 0.492l-0.003-0.005c0.049 0.060 0.112 0.107 0.184 0.136l0.003 0.001c0.076 0.029 0.16 0.040 0.243 0.031 0.12 0.009 0.24-0.024 0.333-0.091 0.072-0.060 0.123-0.145 0.14-0.241l0-0.002c0.022-0.133 0.032-0.267 0.029-0.401v-0.406h0.94v0.371c0.002 0.029 0.003 0.062 0.003 0.096 0 0.357-0.124 0.685-0.331 0.944l0.002-0.003c-0.215 0.245-0.583 0.367-1.124 0.367s-0.949-0.131-1.181-0.403zM34.501 15.699c-0.237-0.257-0.356-0.631-0.356-1.127v-1.736c0-0.49 0.119-0.861 0.356-1.113s0.634-0.377 1.191-0.376c0.553 0 0.947 0.126 1.185 0.376 0.238 0.252 0.358 0.623 0.358 1.113v1.736c0 0.49-0.121 0.866-0.362 1.125s-0.634 0.387-1.181 0.387-0.951-0.131-1.191-0.386zM36.129 15.282c0.085-0.161 0.124-0.337 0.113-0.514v-2.126c0.001-0.017 0.002-0.036 0.002-0.056 0-0.164-0.042-0.318-0.115-0.452l0.002 0.005c-0.050-0.062-0.114-0.109-0.188-0.138l-0.003-0.001c-0.055-0.021-0.118-0.034-0.184-0.034-0.023 0-0.045 0.001-0.067 0.004l0.003-0c-0.019-0.002-0.041-0.004-0.063-0.004-0.067 0-0.131 0.012-0.19 0.035l0.004-0.001c-0.078 0.029-0.143 0.076-0.193 0.137l-0.001 0.001c-0.086 0.157-0.125 0.33-0.113 0.503v2.136c-0.012 0.177 0.027 0.353 0.113 0.514 0.055 0.054 0.122 0.097 0.198 0.127 0.072 0.029 0.155 0.046 0.241 0.046s0.17-0.017 0.246-0.047l-0.004 0.002c0.076-0.030 0.143-0.074 0.198-0.127v-0.010zM38.365 11.398h1.011l0.761 3.203 0.778-3.203h0.985l0.099 4.623h-0.728l-0.078-3.213-0.751 3.213h-0.583l-0.778-3.225-0.072 3.225h-0.735l0.091-4.623zM43.133 11.398h1.576c0.907 0 1.362 0.438 1.362 1.313 0 0.838-0.478 1.257-1.434 1.256h-0.537v2.055h-0.973l0.006-4.623zM44.479 13.374c0.096 0.010 0.194 0.003 0.286-0.023 0.093-0.025 0.177-0.067 0.249-0.123 0.090-0.122 0.144-0.276 0.144-0.442 0-0.028-0.002-0.056-0.005-0.083l0 0.003c0.001-0.016 0.001-0.035 0.001-0.053 0-0.13-0.017-0.257-0.050-0.377l0.002 0.010c-0.016-0.049-0.040-0.092-0.072-0.127l0 0c-0.034-0.038-0.075-0.069-0.121-0.092l-0.002-0.001c-0.113-0.047-0.244-0.075-0.382-0.075-0.019 0-0.037 0.001-0.055 0.002l0.003-0h-0.377v1.382h0.377zM47.474 11.398h1.045l1.072 4.623h-0.907l-0.211-1.066h-0.932l-0.218 1.066h-0.92l1.072-4.623zM48.367 14.419l-0.364-1.941-0.364 1.941h0.727zM50.456 11.398h0.681l1.303 2.637v-2.637h0.808v4.623h-0.648l-1.311-2.753v2.753h-0.834l0.002-4.623zM55.139 14.258l-1.083-2.854h0.913l0.661 1.833 0.621-1.833h0.893l-1.070 2.854v1.762h-0.934v-1.762zM32.090 18.042v0.242h-0.794v1.878h-0.332v-1.878h-0.798v-0.242h1.924zM34.578 20.162h-0.257c-0.002 0-0.004 0-0.007 0-0.024 0-0.047-0.008-0.065-0.020l0 0c-0.019-0.012-0.033-0.028-0.043-0.048l-0-0.001-0.23-0.503h-1.101l-0.23 0.503c-0.007 0.022-0.019 0.042-0.034 0.057v0c-0.019 0.013-0.042 0.020-0.066 0.020-0.002 0-0.004-0-0.007-0h-0.257l0.973-2.12h0.338l0.985 2.111zM32.967 19.375h0.918l-0.389-0.863c-0.025-0.054-0.050-0.121-0.070-0.189l-0.003-0.011c-0.014 0.040-0.025 0.079-0.037 0.113l-0.035 0.089-0.385 0.861zM36.255 19.954c0.061 0.003 0.122 0.003 0.183 0 0.053-0.005 0.105-0.013 0.156-0.025 0.056-0.012 0.103-0.025 0.148-0.041l-0.008 0.003c0.043-0.015 0.086-0.034 0.13-0.053v-0.477h-0.389c-0.001 0-0.003 0-0.005 0-0.008 0-0.017-0.001-0.024-0.004l0.001 0c-0.009-0.003-0.017-0.008-0.024-0.013l0 0c-0.006-0.005-0.011-0.010-0.015-0.017l-0-0c-0.003-0.006-0.005-0.012-0.005-0.019 0-0.001 0-0.002 0-0.002v0-0.163h0.755v0.813c-0.118 0.074-0.255 0.133-0.4 0.171l-0.010 0.002c-0.080 0.020-0.161 0.034-0.243 0.043-0.085 0.009-0.184 0.014-0.284 0.014-0 0-0 0-0 0v0c-0.003 0-0.007 0-0.011 0-0.172 0-0.336-0.029-0.489-0.083l0.010 0.003c-0.15-0.052-0.279-0.127-0.391-0.223l0.002 0.001c-0.104-0.092-0.189-0.204-0.249-0.33l-0.003-0.006c-0.056-0.125-0.089-0.272-0.089-0.426 0-0.005 0-0.010 0-0.015v0.001c-0-0.004-0-0.009-0-0.013 0-0.155 0.032-0.303 0.090-0.437l-0.003 0.007c0.056-0.126 0.142-0.24 0.251-0.336 0.111-0.095 0.243-0.17 0.389-0.22 0.167-0.054 0.344-0.081 0.522-0.079 0.091 0 0.181 0.006 0.27 0.018 0.079 0.011 0.157 0.029 0.231 0.054 0.069 0.022 0.134 0.050 0.194 0.084s0.117 0.070 0.17 0.111l-0.093 0.131c-0.008 0.012-0.019 0.022-0.032 0.028l-0 0c-0.013 0.007-0.028 0.011-0.044 0.011h-0c-0.022-0.001-0.043-0.007-0.061-0.017l0.001 0c-0.039-0.019-0.070-0.035-0.1-0.053l0.005 0.003c-0.037-0.020-0.080-0.040-0.125-0.055l-0.006-0.002c-0.050-0.018-0.11-0.034-0.171-0.046l-0.008-0.001c-0.070-0.012-0.151-0.018-0.234-0.018-0.005 0-0.009 0-0.014 0h0.001c-0.003-0-0.008-0-0.012-0-0.13 0-0.255 0.022-0.372 0.061l0.008-0.002c-0.111 0.038-0.206 0.096-0.286 0.169l0.001-0.001c-0.081 0.076-0.143 0.166-0.182 0.263-0.041 0.105-0.065 0.227-0.065 0.354s0.024 0.249 0.068 0.36l-0.002-0.007c0.043 0.099 0.109 0.19 0.195 0.267 0.080 0.073 0.177 0.13 0.284 0.168 0.124 0.037 0.255 0.051 0.385 0.042zM39.357 19.921h1.063v0.242h-1.387v-2.12h0.333l-0.008 1.878zM41.524 20.162h-0.333v-2.12h0.333v2.12zM42.761 18.052c0.020 0.010 0.037 0.023 0.051 0.039l0 0 1.422 1.598c-0.001-0.011-0.001-0.024-0.001-0.038s0.001-0.026 0.002-0.039l-0 0.002v-1.58h0.29v2.129h-0.167c-0.003 0-0.007 0-0.011 0-0.022 0-0.043-0.005-0.062-0.013l0.001 0c-0.020-0.011-0.038-0.024-0.052-0.040l-0-0-1.42-1.597v1.649h-0.278v-2.121h0.173c0.019 0 0.038 0.003 0.055 0.010zM46.974 18.042v0.233h-1.179v0.7h0.955v0.225h-0.955v0.723h1.179v0.233h-1.522v-2.115h1.522zM12.111 4.948l14.773 3.619v12.683l-14.773-3.617v-12.686zM11.164 3.867v14.382l16.666 4.085v-14.38l-16.666-4.086z"></path>
<path d="M20.096 29.010l-16.667-4.088v-14.381l16.667 4.086v14.383z"></path>
<path d="M11.44 4.785l14.58 3.574-6.2 5.352-14.582-3.576 6.202-5.35zM11.164 3.867l-7.735 6.674 16.667 4.086 7.734-6.674-16.666-4.086zM21.034 28.2l6.795-5.865-6.796-1.667v7.533z"></path>
</symbol>
<symbol id="icon-brand" viewBox="0 0 59 32">
<path d="M15.31 25.356c0.14 0.157 0.215 0.352 0.211 0.553 0.007 0.131-0.019 0.262-0.075 0.383s-0.143 0.229-0.252 0.315c-0.239 0.162-0.534 0.258-0.851 0.258-0.035 0-0.070-0.001-0.105-0.004l0.005 0h-1.671v-3.504h1.637c0.029-0.002 0.063-0.003 0.097-0.003 0.301 0 0.581 0.088 0.817 0.239l-0.006-0.004c0.105 0.080 0.189 0.181 0.245 0.294s0.080 0.238 0.073 0.362c0.010 0.193-0.058 0.383-0.19 0.535-0.129 0.138-0.3 0.236-0.492 0.273l-0.006 0.001c0.222 0.037 0.422 0.143 0.565 0.299zM13.349 24.827h0.7c0.159 0.011 0.317-0.030 0.445-0.116 0.051-0.041 0.092-0.093 0.119-0.153l0.001-0.003c0.020-0.045 0.032-0.097 0.032-0.152 0-0.012-0.001-0.025-0.002-0.037l0 0.002c0.001-0.009 0.001-0.019 0.001-0.029 0-0.057-0.012-0.11-0.034-0.159l0.001 0.003c-0.028-0.062-0.067-0.114-0.116-0.156l-0.001-0c-0.113-0.075-0.252-0.12-0.401-0.12-0.020 0-0.040 0.001-0.060 0.002l0.003-0h-0.689v0.919zM14.562 26.171c0.055-0.042 0.098-0.096 0.128-0.158l0.001-0.003c0.024-0.049 0.037-0.107 0.037-0.168 0-0.010-0-0.019-0.001-0.028l0 0.001c0.001-0.007 0.001-0.016 0.001-0.025 0-0.063-0.014-0.122-0.040-0.175l0.001 0.002c-0.032-0.065-0.076-0.119-0.13-0.161l-0.001-0.001c-0.121-0.080-0.269-0.128-0.429-0.128-0.016 0-0.033 0-0.049 0.002l0.002-0h-0.734v0.964h0.743c0.167 0.009 0.333-0.034 0.47-0.122zM18.657 26.863l-0.911-1.37h-0.343v1.369h-0.783v-3.504h1.483c0.032-0.002 0.069-0.004 0.107-0.004 0.348 0 0.67 0.113 0.93 0.304l-0.004-0.003c0.207 0.19 0.333 0.441 0.353 0.707s-0.066 0.529-0.242 0.743c-0.183 0.189-0.433 0.315-0.707 0.357l0.97 1.4h-0.851zM17.403 25.015h0.641c0.445 0 0.667-0.177 0.667-0.531 0.001-0.009 0.001-0.019 0.001-0.029 0-0.066-0.014-0.129-0.038-0.187l0.001 0.003c-0.030-0.071-0.073-0.132-0.127-0.181l-0-0c-0.122-0.090-0.275-0.144-0.441-0.144-0.022 0-0.044 0.001-0.065 0.003l0.003-0h-0.649l0.008 1.066zM22.939 26.157h-1.562l-0.276 0.705h-0.821l1.434-3.465h0.888l1.428 3.465h-0.822l-0.27-0.705zM22.73 25.627l-0.571-1.479-0.57 1.479h1.141zM28.299 26.863h-0.777l-1.744-2.383v2.383h-0.776v-3.505h0.776l1.743 2.397v-2.397h0.778v3.504zM32.737 26.023c-0.169 0.27-0.409 0.482-0.693 0.614l-0.010 0.004c-0.338 0.154-0.714 0.23-1.093 0.221h-1.385v-3.504h1.385c0.019-0.001 0.042-0.001 0.064-0.001 0.372 0 0.726 0.080 1.045 0.223l-0.016-0.006c0.298 0.135 0.543 0.349 0.703 0.611 0.16 0.285 0.243 0.6 0.243 0.919-0.001 0.338-0.091 0.655-0.248 0.928l0.005-0.009zM31.847 25.94c0.211-0.216 0.341-0.511 0.344-0.836v-0c-0.003-0.326-0.133-0.62-0.344-0.836l0 0c-0.242-0.188-0.55-0.301-0.884-0.301-0.031 0-0.063 0.001-0.094 0.003l0.004-0h-0.54v2.269h0.54c0.027 0.002 0.058 0.003 0.090 0.003 0.334 0 0.642-0.113 0.887-0.303l-0.003 0.002zM23.426 3.867s10.038 3.411 9.825 8.349v8.351s-10.031-3.414-9.822-8.351l-0.003-8.349zM42.194 18.611c1.895-1.175 4.089-1.903 6.378-2.116v-2.614c-2.638 0.915-4.875 2.574-6.378 4.73z"></path>
<path d="M41.055 19.399c1.551-2.813 4.242-4.983 7.517-6.065v-7.533s-14.296 4.86-13.994 11.891v11.889s0.637-0.217 1.639-0.625c0-0.38 0-0.763 0.046-1.149 0.296-3.264 2.019-6.289 4.792-8.409z"></path>
<path d="M39.695 23.815c0.084-0.899 0.261-1.726 0.523-2.513l-0.023 0.079c-1.727 1.831-2.772 4.103-2.99 6.497-0.021 0.226-0.032 0.451-0.038 0.685 1.198-0.515 2.101-0.951 2.987-1.418l-0.237 0.114c-0.171-0.73-0.269-1.569-0.269-2.43 0-0.357 0.017-0.709 0.050-1.057l-0.003 0.044zM40.263 23.858c-0.028 0.289-0.044 0.624-0.044 0.963 0 0.763 0.080 1.506 0.233 2.224l-0.012-0.070c3.906-2.104 8.294-5.354 8.125-9.283v-0.343c-2.79 0.282-5.401 1.38-7.431 3.126-0.448 0.989-0.757 2.136-0.868 3.341l-0.003 0.042z"></path>
</symbol>
  </defs>
</svg>
